<svg xmlns="http://www.w3.org/2000/svg" viewBox="0 0 640 360" role="img" aria-label="Executive sedan placeholder">
  <defs>
    <linearGradient id="g" x1="0" x2="1">
      <stop offset="0%" stop-color="#c9a862"/>
      <stop offset="100%" stop-color="#eddca9"/>
    </linearGradient>
  </defs>
  <rect width="640" height="360" fill="#0d121a"/>
  <path d="M40 220c30-40 120-90 230-90 120 0 230 20 280 40 30 10 60 40 80 70 6 10 4 20-10 20H520c-10-40-40-60-90-60s-80 20-90 60H220c-20-60-80-80-140-60-20 8-36 20-44 40H40c-14 0-10-10 0-20z" fill="url(#g)" opacity="0.9"/>
</svg>

