<svg xmlns="http://www.w3.org/2000/svg" viewBox="0 0 48 48" role="img" aria-label="WhatsApp">
  <defs>
    <linearGradient id="wa" x1="0" x2="1" y1="0" y2="1">
      <stop offset="0%" stop-color="#25D366"/>
      <stop offset="100%" stop-color="#1ebe57"/>
    </linearGradient>
  </defs>
  <g fill="none">
    <circle cx="24" cy="24" r="20" fill="url(#wa)"/>
    <path fill="#fff" d="M31.7 28.5c-.2-.1-2-1-2.3-1.1-.3-.1-.5-.2-.7.2s-.8 1.1-1 1.3c-.2.2-.4.2-.7.1-2-.8-3.5-2.1-4.6-3.9-.3-.4 0-.6.2-.8.2-.2.3-.4.5-.6.2-.2.2-.4.3-.6 0-.2 0-.4 0-.6 0-.2-.7-1.7-1-2.3-.3-.6-.5-.5-.7-.5h-.6c-.2 0-.6.1-.9.4-.3.3-1.2 1.1-1.2 2.7 0 1.6 1.3 3.2 1.4 3.4.2.2 2.6 4 6.3 5.5.9.4 1.6.6 2.1.7.9.3 1.7.2 2.3.1.7-.1 2-0.8 2.3-1.6.3-.8.3-1.4.2-1.6-.1-.1-.2-.2-.4-.3z"/>
  </g>
</svg>

